<svg xmlns="http://www.w3.org/2000/svg" width="499.95" height="35" viewBox="0 0 499.95 35"><rect class="svg__rect" x="0" y="0" width="108.43" height="35" fill="#005384"/><rect class="svg__rect" x="106.43" y="0" width="393.52" height="35" fill="#45A4B8"/><path class="svg__text" d="M19.57 22L14.22 22L14.22 13.47L15.70 13.47L15.70 20.82L19.57 20.82L19.57 22ZM25.26 22L23.79 22L23.79 13.47L25.26 13.47L25.26 22ZM33.18 22L30.07 22L30.07 13.47L33.00 13.47Q34.44 13.47 35.20 14.05Q35.96 14.63 35.96 15.78L35.96 15.78Q35.96 16.36 35.64 16.83Q35.32 17.30 34.71 17.56L34.71 17.56Q35.40 17.75 35.78 18.26Q36.16 18.78 36.16 19.51L36.16 19.51Q36.16 20.71 35.39 21.36Q34.62 22 33.18 22L33.18 22ZM31.56 18.15L31.56 20.82L33.20 20.82Q33.90 20.82 34.29 20.47Q34.68 20.13 34.68 19.51L34.68 19.51Q34.68 18.18 33.32 18.15L33.32 18.15L31.56 18.15ZM31.56 14.66L31.56 17.06L33.01 17.06Q33.70 17.06 34.09 16.75Q34.48 16.43 34.48 15.86L34.48 15.86Q34.48 15.23 34.12 14.95Q33.76 14.66 33.00 14.66L33.00 14.66L31.56 14.66ZM42.11 22L40.63 22L40.63 13.47L43.63 13.47Q45.11 13.47 45.91 14.13Q46.71 14.79 46.71 16.05L46.71 16.05Q46.71 16.90 46.30 17.48Q45.89 18.06 45.15 18.37L45.15 18.37L47.06 21.92L47.06 22L45.48 22L43.77 18.71L42.11 18.71L42.11 22ZM42.11 14.66L42.11 17.52L43.64 17.52Q44.39 17.52 44.81 17.15Q45.23 16.77 45.23 16.11L45.23 16.11Q45.23 15.43 44.84 15.05Q44.45 14.68 43.68 14.66L43.68 14.66L42.11 14.66ZM51.89 22L50.35 22L53.57 13.47L54.90 13.47L58.13 22L56.58 22L55.88 20.01L52.58 20.01L51.89 22ZM54.23 15.28L52.99 18.82L55.47 18.82L54.23 15.28ZM63.56 22L62.08 22L62.08 13.47L65.08 13.47Q66.56 13.47 67.36 14.13Q68.16 14.79 68.16 16.05L68.16 16.05Q68.16 16.90 67.75 17.48Q67.34 18.06 66.60 18.37L66.60 18.37L68.52 21.92L68.52 22L66.93 22L65.22 18.71L63.56 18.71L63.56 22ZM63.56 14.66L63.56 17.52L65.09 17.52Q65.84 17.52 66.26 17.15Q66.68 16.77 66.68 16.11L66.68 16.11Q66.68 15.43 66.29 15.05Q65.90 14.68 65.13 14.66L65.13 14.66L63.56 14.66ZM74.12 22L72.65 22L72.65 13.47L74.12 13.47L74.12 22ZM84.51 22L78.93 22L78.93 13.47L84.47 13.47L84.47 14.66L80.42 14.66L80.42 17.02L83.92 17.02L83.92 18.19L80.42 18.19L80.42 20.82L84.51 20.82L84.51 22ZM88.27 19.42L88.27 19.42L89.76 19.42Q89.76 20.15 90.24 20.55Q90.72 20.95 91.61 20.95L91.61 20.95Q92.39 20.95 92.78 20.63Q93.17 20.32 93.17 19.80L93.17 19.80Q93.17 19.24 92.77 18.94Q92.38 18.63 91.34 18.32Q90.31 18.01 89.70 17.63L89.70 17.63Q88.54 16.90 88.54 15.72L88.54 15.72Q88.54 14.69 89.38 14.02Q90.22 13.35 91.56 13.35L91.56 13.35Q92.45 13.35 93.15 13.68Q93.85 14.01 94.24 14.61Q94.64 15.22 94.64 15.96L94.64 15.96L93.17 15.96Q93.17 15.29 92.75 14.91Q92.33 14.54 91.55 14.54L91.55 14.54Q90.82 14.54 90.42 14.85Q90.02 15.16 90.02 15.71L90.02 15.71Q90.02 16.18 90.45 16.50Q90.89 16.81 91.88 17.10Q92.88 17.40 93.48 17.78Q94.09 18.16 94.37 18.65Q94.65 19.13 94.65 19.79L94.65 19.79Q94.65 20.86 93.83 21.49Q93.01 22.12 91.61 22.12L91.61 22.12Q90.69 22.12 89.91 21.77Q89.14 21.43 88.70 20.83Q88.27 20.22 88.27 19.42Z" fill="#FFFFFF"/><path class="svg__text" d="M123.00 22L120.62 22L120.62 13.60L124.46 13.60Q125.60 13.60 126.44 13.98Q127.28 14.35 127.74 15.06Q128.19 15.76 128.19 16.71L128.19 16.71Q128.19 17.62 127.77 18.30Q127.34 18.98 126.55 19.36L126.55 19.36L128.36 22L125.82 22L124.29 19.77L123.00 19.77L123.00 22ZM123.00 15.47L123.00 17.93L124.32 17.93Q125.05 17.93 125.42 17.61Q125.79 17.29 125.79 16.71L125.79 16.71Q125.79 16.12 125.42 15.79Q125.05 15.47 124.32 15.47L124.32 15.47L123.00 15.47ZM139.73 22L132.98 22L132.98 13.60L139.57 13.60L139.57 15.44L135.34 15.44L135.34 16.85L139.07 16.85L139.07 18.63L135.34 18.63L135.34 20.17L139.73 20.17L139.73 22ZM145.95 22L143.52 22L147.23 13.60L149.57 13.60L153.29 22L150.82 22L150.16 20.37L146.61 20.37L145.95 22ZM148.39 15.93L147.30 18.61L149.46 18.61L148.39 15.93ZM157.02 17.80L157.02 17.80Q157.02 16.54 157.61 15.54Q158.21 14.55 159.26 13.99Q160.32 13.43 161.63 13.43L161.63 13.43Q162.79 13.43 163.71 13.84Q164.63 14.25 165.25 15.02L165.25 15.02L163.74 16.39Q162.92 15.40 161.76 15.40L161.76 15.40Q161.07 15.40 160.54 15.70Q160.00 16 159.71 16.54Q159.41 17.09 159.41 17.80L159.41 17.80Q159.41 18.51 159.71 19.05Q160.00 19.60 160.54 19.90Q161.07 20.20 161.76 20.20L161.76 20.20Q162.92 20.20 163.74 19.22L163.74 19.22L165.25 20.58Q164.64 21.35 163.71 21.76Q162.79 22.17 161.63 22.17L161.63 22.17Q160.32 22.17 159.26 21.61Q158.21 21.05 157.61 20.05Q157.02 19.06 157.02 17.80ZM171.58 15.48L168.99 15.48L168.99 13.60L176.52 13.60L176.52 15.48L173.95 15.48L173.95 22L171.58 22L171.58 15.48ZM184.13 19.46L180.62 19.46L180.62 17.71L184.13 17.71L184.13 19.46ZM187.95 20.93L187.95 20.93L189.24 19.40Q189.91 20.27 190.68 20.27L190.68 20.27Q190.69 20.27 190.70 20.27L190.70 20.27Q191.21 20.27 191.48 19.96Q191.75 19.65 191.75 19.05L191.75 19.05L191.75 15.44L188.85 15.44L188.85 13.60L194.11 13.60L194.11 18.91Q194.11 20.54 193.28 21.36Q192.46 22.17 190.87 22.17L190.87 22.17Q189.94 22.17 189.18 21.85Q188.43 21.53 187.95 20.93ZM198.61 21.24L198.61 21.24L199.39 19.49Q199.95 19.86 200.69 20.09Q201.44 20.32 202.16 20.32L202.16 20.32Q203.52 20.32 203.53 19.64L203.53 19.64Q203.53 19.28 203.14 19.11Q202.75 18.93 201.88 18.74L201.88 18.74Q200.93 18.53 200.30 18.30Q199.66 18.06 199.21 17.55Q198.75 17.03 198.75 16.16L198.75 16.16Q198.75 15.39 199.17 14.77Q199.59 14.15 200.43 13.79Q201.26 13.43 202.47 13.43L202.47 13.43Q203.29 13.43 204.10 13.62Q204.91 13.80 205.52 14.17L205.52 14.17L204.79 15.93Q203.59 15.28 202.46 15.28L202.46 15.28Q201.75 15.28 201.42 15.49Q201.10 15.70 201.10 16.04L201.10 16.04Q201.10 16.37 201.49 16.54Q201.87 16.71 202.72 16.89L202.72 16.89Q203.68 17.10 204.31 17.33Q204.94 17.56 205.40 18.07Q205.87 18.58 205.87 19.46L205.87 19.46Q205.87 20.21 205.45 20.83Q205.03 21.44 204.19 21.80Q203.35 22.17 202.15 22.17L202.15 22.17Q201.13 22.17 200.16 21.92Q199.20 21.67 198.61 21.24ZM218.16 23.20L216.13 23.20L220.09 11.90L222.12 11.90L218.16 23.20ZM235.23 22L232.85 22L232.85 13.60L236.69 13.60Q237.83 13.60 238.67 13.98Q239.51 14.35 239.97 15.06Q240.42 15.76 240.42 16.71L240.42 16.71Q240.42 17.62 240.00 18.30Q239.57 18.98 238.78 19.36L238.78 19.36L240.59 22L238.05 22L236.52 19.77L235.23 19.77L235.23 22ZM235.23 15.47L235.23 17.93L236.55 17.93Q237.28 17.93 237.65 17.61Q238.02 17.29 238.02 16.71L238.02 16.71Q238.02 16.12 237.65 15.79Q237.28 15.47 236.55 15.47L236.55 15.47L235.23 15.47ZM251.96 22L245.21 22L245.21 13.60L251.80 13.60L251.80 15.44L247.57 15.44L247.57 16.85L251.30 16.85L251.30 18.63L247.57 18.63L247.57 20.17L251.96 20.17L251.96 22ZM258.18 22L255.75 22L259.46 13.60L261.81 13.60L265.52 22L263.05 22L262.39 20.37L258.84 20.37L258.18 22ZM260.62 15.93L259.53 18.61L261.69 18.61L260.62 15.93ZM269.25 17.80L269.25 17.80Q269.25 16.54 269.84 15.54Q270.44 14.55 271.49 13.99Q272.55 13.43 273.86 13.43L273.86 13.43Q275.02 13.43 275.94 13.84Q276.86 14.25 277.48 15.02L277.48 15.02L275.97 16.39Q275.15 15.40 273.99 15.40L273.99 15.40Q273.30 15.40 272.77 15.70Q272.24 16 271.94 16.54Q271.64 17.09 271.64 17.80L271.64 17.80Q271.64 18.51 271.94 19.05Q272.24 19.60 272.77 19.90Q273.30 20.20 273.99 20.20L273.99 20.20Q275.15 20.20 275.97 19.22L275.97 19.22L277.48 20.58Q276.87 21.35 275.94 21.76Q275.02 22.17 273.86 22.17L273.86 22.17Q272.55 22.17 271.49 21.61Q270.44 21.05 269.84 20.05Q269.25 19.06 269.25 17.80ZM283.81 15.48L281.22 15.48L281.22 13.60L288.75 13.60L288.75 15.48L286.18 15.48L286.18 22L283.81 22L283.81 15.48ZM296.36 19.46L292.85 19.46L292.85 17.71L296.36 17.71L296.36 19.46ZM303.64 22L301.26 22L301.26 13.60L303.64 13.60L303.64 16.76L306.88 16.76L306.88 13.60L309.25 13.60L309.25 22L306.88 22L306.88 18.72L303.64 18.72L303.64 22ZM313.98 17.80L313.98 17.80Q313.98 16.55 314.59 15.55Q315.19 14.56 316.25 14.00Q317.32 13.43 318.65 13.43L318.65 13.43Q319.98 13.43 321.04 14.00Q322.10 14.56 322.71 15.55Q323.32 16.55 323.32 17.80L323.32 17.80Q323.32 19.05 322.71 20.04Q322.10 21.04 321.04 21.60Q319.98 22.17 318.65 22.17L318.65 22.17Q317.32 22.17 316.25 21.60Q315.19 21.04 314.59 20.04Q313.98 19.05 313.98 17.80ZM316.38 17.80L316.38 17.80Q316.38 18.51 316.68 19.05Q316.98 19.60 317.50 19.90Q318.01 20.20 318.65 20.20L318.65 20.20Q319.29 20.20 319.80 19.90Q320.32 19.60 320.62 19.05Q320.91 18.51 320.91 17.80L320.91 17.80Q320.91 17.09 320.62 16.54Q320.32 16 319.80 15.70Q319.29 15.40 318.65 15.40L318.65 15.40Q318.01 15.40 317.50 15.70Q316.98 16 316.68 16.54Q316.38 17.09 316.38 17.80ZM327.62 17.80L327.62 17.80Q327.62 16.55 328.22 15.55Q328.82 14.56 329.89 14.00Q330.95 13.43 332.28 13.43L332.28 13.43Q333.61 13.43 334.68 14.00Q335.74 14.56 336.35 15.55Q336.95 16.55 336.95 17.80L336.95 17.80Q336.95 19.05 336.35 20.04Q335.74 21.04 334.68 21.60Q333.62 22.17 332.28 22.17L332.28 22.17Q330.95 22.17 329.89 21.60Q328.82 21.04 328.22 20.04Q327.62 19.05 327.62 17.80ZM330.01 17.80L330.01 17.80Q330.01 18.51 330.32 19.05Q330.62 19.60 331.13 19.90Q331.65 20.20 332.28 20.20L332.28 20.20Q332.92 20.20 333.44 19.90Q333.95 19.60 334.25 19.05Q334.55 18.51 334.55 17.80L334.55 17.80Q334.55 17.09 334.25 16.54Q333.95 16 333.44 15.70Q332.92 15.40 332.28 15.40L332.28 15.40Q331.64 15.40 331.13 15.70Q330.62 16 330.32 16.54Q330.01 17.09 330.01 17.80ZM344.04 22L341.68 22L341.68 13.60L344.04 13.60L344.04 17.09L347.29 13.60L349.90 13.60L346.47 17.32L350.08 22L347.32 22L344.92 18.95L344.04 19.90L344.04 22ZM357.43 19.46L353.93 19.46L353.93 17.71L357.43 17.71L357.43 19.46ZM364.71 22L362.33 22L362.33 13.60L368.92 13.60L368.92 15.44L364.71 15.44L364.71 17.28L368.42 17.28L368.42 19.12L364.71 19.12L364.71 22ZM373.09 17.80L373.09 17.80Q373.09 16.55 373.69 15.55Q374.29 14.56 375.36 14.00Q376.42 13.43 377.75 13.43L377.75 13.43Q379.08 13.43 380.14 14.00Q381.21 14.56 381.81 15.55Q382.42 16.55 382.42 17.80L382.42 17.80Q382.42 19.05 381.81 20.04Q381.21 21.04 380.15 21.60Q379.09 22.17 377.75 22.17L377.75 22.17Q376.42 22.17 375.36 21.60Q374.29 21.04 373.69 20.04Q373.09 19.05 373.09 17.80ZM375.48 17.80L375.48 17.80Q375.48 18.51 375.78 19.05Q376.09 19.60 376.60 19.90Q377.12 20.20 377.75 20.20L377.75 20.20Q378.39 20.20 378.91 19.90Q379.42 19.60 379.72 19.05Q380.02 18.51 380.02 17.80L380.02 17.80Q380.02 17.09 379.72 16.54Q379.42 16 378.91 15.70Q378.39 15.40 377.75 15.40L377.75 15.40Q377.11 15.40 376.60 15.70Q376.09 16 375.78 16.54Q375.48 17.09 375.48 17.80ZM389.53 22L387.15 22L387.15 13.60L390.99 13.60Q392.14 13.60 392.97 13.98Q393.81 14.35 394.27 15.06Q394.73 15.76 394.73 16.71L394.73 16.71Q394.73 17.62 394.30 18.30Q393.87 18.98 393.08 19.36L393.08 19.36L394.89 22L392.35 22L390.82 19.77L389.53 19.77L389.53 22ZM389.53 15.47L389.53 17.93L390.85 17.93Q391.58 17.93 391.95 17.61Q392.32 17.29 392.32 16.71L392.32 16.71Q392.32 16.12 391.95 15.79Q391.58 15.47 390.85 15.47L390.85 15.47L389.53 15.47ZM401.71 22L399.51 22L399.51 13.60L401.47 13.60L404.42 18.45L407.31 13.60L409.26 13.60L409.28 22L407.10 22L407.08 17.55L404.91 21.17L403.86 21.17L401.71 17.67L401.71 22ZM422.16 23.20L420.13 23.20L424.09 11.90L426.12 11.90L422.16 23.20ZM432.25 22L429.88 22L429.88 13.60L433.72 13.60Q434.86 13.60 435.70 13.98Q436.54 14.35 436.99 15.06Q437.45 15.76 437.45 16.71L437.45 16.71Q437.45 17.62 437.02 18.30Q436.60 18.98 435.81 19.36L435.81 19.36L437.62 22L435.07 22L433.55 19.77L432.25 19.77L432.25 22ZM432.25 15.47L432.25 17.93L433.57 17.93Q434.31 17.93 434.68 17.61Q435.05 17.29 435.05 16.71L435.05 16.71Q435.05 16.12 434.68 15.79Q434.31 15.47 433.57 15.47L433.57 15.47L432.25 15.47ZM448.98 22L442.24 22L442.24 13.60L448.83 13.60L448.83 15.44L444.59 15.44L444.59 16.85L448.33 16.85L448.33 18.63L444.59 18.63L444.59 20.17L448.98 20.17L448.98 22ZM457.76 22L453.79 22L453.79 13.60L457.76 13.60Q459.14 13.60 460.21 14.12Q461.28 14.63 461.86 15.58Q462.45 16.53 462.45 17.80L462.45 17.80Q462.45 19.07 461.86 20.02Q461.28 20.97 460.21 21.48Q459.14 22 457.76 22L457.76 22ZM456.17 15.50L456.17 20.10L457.67 20.10Q458.74 20.10 459.40 19.49Q460.05 18.88 460.05 17.80L460.05 17.80Q460.05 16.72 459.40 16.11Q458.74 15.50 457.67 15.50L457.67 15.50L456.17 15.50ZM467.11 18.26L467.11 18.26L467.11 13.60L469.49 13.60L469.49 18.19Q469.49 20.20 471.08 20.20L471.08 20.20Q472.67 20.20 472.67 18.19L472.67 18.19L472.67 13.60L475.01 13.60L475.01 18.26Q475.01 20.13 473.97 21.15Q472.93 22.17 471.06 22.17L471.06 22.17Q469.19 22.17 468.15 21.15Q467.11 20.13 467.11 18.26ZM481.95 22L479.24 22L482.29 17.75L479.36 13.60L482.04 13.60L483.72 16.02L485.38 13.60L487.95 13.60L485.02 17.66L488.14 22L485.41 22L483.66 19.40L481.95 22Z" fill="#FFFFFF" x="119.43"/></svg>